<svg version="1.2" xmlns="http://www.w3.org/2000/svg" viewBox="0 0 512 512" width="512" height="512">
    <style>
        .a {
            fill: #ca41fc
        }

        .b {
            fill: #ffd200
        }

        .c {
            fill: #ff5400
        }

        .d {
            fill: #00c0ff
        }

        .e {
            fill: #81e650
        }

        .f {
            fill: #00d267
        }

        .g {
            fill: #ff46fb
        }

        .h {
            fill: #ff8e00
        }

        .i {
            fill: #8b48fe
        }
    </style>
    <path class="a logo-anim-1 svg-elem-1"
        d="m246 11.5c-2.5 0.7-9.7 5.1-16 9.6-6.3 4.6-17.1 12.3-24 17.2-6.9 5-18.9 13.8-26.8 19.6l-14.3 10.6 0.1 109.5h182c0.4-82.9 0.4-107.5 0.3-108-0.2-0.6-4.5-4.1-9.5-7.8-5.1-3.8-18.3-13.3-29.3-21.2-11-7.9-24.3-17.4-29.5-21-5.2-3.7-11.7-7.5-14.5-8.4-2.7-0.9-7-1.6-9.5-1.5-2.5 0-6.5 0.7-9 1.4z">
    </path>
    <path class="b logo-anim-2 svg-elem-2"
        d="m157.5 73.8c-2.8 2-11.5 8.4-19.5 14.2-8 5.7-22.6 16.3-32.5 23.6-9.9 7.2-26.8 19.6-37.6 27.5-10.8 7.9-26.1 19.1-34.2 24.9-9 6.5-14.6 11.2-14.6 12.3-0.1 1.6 4 1.7 72.9 1.7h73c0-96.5-0.3-108-1.3-108-0.6 0-3.5 1.7-6.2 3.8z">
    </path>
    <path class="c logo-anim-3 svg-elem-3"
        d="m347.5 71.7c-0.5 0.3-0.8 24.4-0.7 53.5l0.2 52.8c141.9 0 146-0.1 146-1.8 0-0.9-2.8-3.6-6.3-6.1-3.4-2.5-15.6-11.3-27.2-19.6-11.6-8.3-27.8-20.1-36-26.2-8.3-6-24.9-18.1-37-26.8-12.1-8.7-25.3-18.2-29.3-21.1-3.9-3-7.6-5.4-8-5.4-0.5 0-1.2 0.3-1.7 0.7z">
    </path>
    <path class="d logo-anim-4 svg-elem-4"
        d="m15 178.1c-1.1 0.4-3.6 2.6-5.7 5-2 2.4-4.6 6.4-5.7 8.9-1.5 3.3-2.1 6.5-2 12 0 6.9 1.2 11.1 15.6 55.5 8.6 26.4 17.9 55.2 20.7 64 2.8 8.8 6.7 20.6 8.6 26.3l3.5 10.2h115c0-162-0.3-181.1-1.2-181.5-0.7-0.3-34.1-0.6-74.1-0.7-40.1-0.2-73.7 0-74.7 0.3z">
    </path>
    <path class="e logo-anim-5 svg-elem-5"
        d="m420.3 177.7l-73.3 0.3v182l114.5-0.5c8.8-26.4 19.8-60.3 30.1-92.5 15.7-49.2 18.7-59.5 18.7-64.5 0-4.2-0.8-7.6-2.5-11.5-1.4-3-4.1-7.2-5.9-9.2-1.9-2.1-4.5-3.9-5.9-4-1.4-0.2-35.5-0.2-75.8-0.1z">
    </path>
    <path class="f logo-anim-6 svg-elem-6" d="m164.8 269l0.2 91h182v-182h-182.5z"></path>
    <path class="g logo-anim-7 svg-elem-7"
        d="m51 361.3c0 0.6 7.5 24.1 16.6 52.2 9.1 28 17.3 53.2 18.1 56 0.9 2.7 2.8 7.5 4.3 10.5 1.5 3 4.7 7.3 7.1 9.6 2.4 2.2 7 5 10.1 6.2 5.4 2.1 7.5 2.2 31.8 2.2h26v-138c-101.9 0-114 0.3-114 1.2z">
    </path>
    <path class="h logo-anim-8 svg-elem-8" d="m165 429v69h182v-138h-182z"></path>
    <path class="i logo-anim-9 svg-elem-9"
        d="m347 429v69c53.9-0.5 54.6-0.6 59.9-3 3.4-1.6 7.4-4.6 10.5-8.1 4.8-5.2 5.4-6.5 9.9-21 2.6-8.4 11.2-35.4 19.1-59.9 7.9-24.5 14.2-44.8 14-45.3-0.2-0.4-25.8-0.7-56.9-0.7h-56.5z">
    </path>
</svg>