<svg clip-rule="evenodd" fill-rule="evenodd" stroke-linejoin="round" stroke-miterlimit="1.414" viewBox="0 0 35 35"
    xmlns="http://www.w3.org/2000/svg">
    <clipPath id="prefix__a">
        <path d="M0 0h32v32H0z" />
    </clipPath>
    <clipPath id="prefix__b">
        <path d="M19 9a5 5 0 00-5-5l-2-1-2 1a5 5 0 00-5 5v2l-1 1v1h16v-1l-1-1V9z" />
    </clipPath>
    <clipPath id="prefix__c">
        <path d="M20 19a3 3 0 013-3h6v6l-6-2v-1z" />
    </clipPath>
    <path d="M0 0h32v32H0z" fill="none" />
    <g clip-path="url(#prefix__a)">
        <path
            d="M4 15H2v-3.828l1-1c0-.449-.006-.902.002-1.352a7.038 7.038 0 01.486-2.393c.189-.471.424-.921.708-1.342A6.988 6.988 0 019.464 2.02l.027-.002L12 .764l2.509 1.254a7.036 7.036 0 01.641.076 7.102 7.102 0 012.336.834 7.008 7.008 0 013.146 3.827c.244.722.363 1.478.368 2.239v1.178l1 1V14.1c.162-.033.326-.058.491-.074.165-.017.331-.024.496-.026H31v10.775l-4-1.333V32H2c0-.725-.011-1.45.002-2.175a7.118 7.118 0 01.408-2.186 7.03 7.03 0 012.849-3.557 7.065 7.065 0 011.784-.803 7.974 7.974 0 01-2.471-3.308 8.008 8.008 0 01-.571-2.872C3.996 16.399 3.996 15.7 4 15zm17 6h-2.072a8.03 8.03 0 01-1.97 2.278 7.029 7.029 0 012.496 1.321A7.05 7.05 0 0121 26.396z" />
        <path d="M15.854 25.073A5 5 0 0120 30H4a5 5 0 014.146-4.927c.469 1.687 7.239 1.687 7.708 0z" fill="#d57629" />
        <path
            d="M8.146 25.073C8.423 25.025 8.709 25 9 25h6c.291 0 .577.025.854.073C15.385 26.76 13.836 28 12 28s-3.385-1.24-3.854-2.927z"
            fill="#333" />
        <path d="M18 15v2a6.003 6.003 0 01-1.757 4.243 6.003 6.003 0 01-8.486 0A6.003 6.003 0 016 17v-2l6-3z"
            fill="gray" />
        <path d="M17.196 12A6 6 0 0118 15H6a6 6 0 01.804-3z" fill="#2b2b2b" />
        <path d="M16 15a1 1 0 00-2 0v1a1 1 0 002 0v-1zm-6 0a1 1 0 00-2 0v1a1 1 0 002 0v-1z" />
        <path d="M19 9a5 5 0 00-5-5l-2-1-2 1a5 5 0 00-5 5v2l-1 1v1h16v-1l-1-1V9z" fill="#ffcf22" />
        <g clip-path="url(#prefix__b)">
            <path d="M9 3v6a.997.997 0 01-1 1 .997.997 0 01-1-1V3zm8 0v6a.997.997 0 01-1 1 .997.997 0 01-1-1V3z"
                fill="#c80" />
            <path
                d="M14 10.414a1 1 0 00-.293-.707l-1-1a1 1 0 00-1.414 0l-1 1a1 1 0 00-.293.707V11a1 1 0 001 1h2a1 1 0 001-1v-.586z"
                fill="#323232" />
        </g>
        <path d="M23 19h2v11h-2z" fill="#cbb72e" />
        <path d="M20 19a3 3 0 013-3h6v6l-6-2v-1z" fill="#6b6b6b" />
        <g clip-path="url(#prefix__c)">
            <path d="M27 15h3v8h-3z" fill="#939393" />
        </g>
    </g>
</svg>